<svg xmlns="http://www.w3.org/2000/svg" width="168.332" height="42.233" viewBox="0 0 168.332 42.233"><defs><style>.a{fill:#00316a;}.b{fill:#00316b;}.c{fill:#babbbd;}.d{fill:#babbbc;}.e{fill:#fefefe;}.f{fill:#bbbcbd;}.g{fill:#bebfc0;}.h{fill:#babcbd;}.i{fill:#bdbec0;}.j{fill:#bbbcbe;}.k{fill:#babcbe;}.l{fill:#bcbdbf;}.m{fill:#cacbcc;}.n{fill:#c8cacb;}.o{fill:#c9cacb;}.p{fill:#cccdce;}.q{fill:#003e7e;}.r{fill:#c1e6f8;}.s{fill:#00336e;}.t{fill:#00346f;}.u{fill:#003c7a;}.v{fill:#003c7b;}.w{fill:#003977;}.x{fill:#003673;}.y{fill:#003876;}.z{fill:#00336d;}.aa{fill:#003773;}.ab{fill:#003672;}.ac{fill:#003976;}.ad{fill:#003774;}.ae{fill:#003470;}.af{fill:#003571;}.ag{fill:#003b7a;}.ah{fill:#003e7d;}.ai{fill:#003572;}.aj{fill:#003a78;}</style></defs><g transform="translate(0)"><path class="a" d="M596.13,171.87l.271-.371a.592.592,0,0,0-.4-.1,7.773,7.773,0,0,0-8.531,6.278c-.766,3.284-1.554,6.562-2.322,9.846-.052.222-.1.333-.364.332-2.507-.01-5.013-.006-7.52-.008a1.1,1.1,0,0,1-.153-.026c.339-1.432.673-2.859,1.014-4.284q2.074-8.663,4.145-17.328c.062-.259.139-.364.425-.363q3.467.019,6.935,0c.3,0,.363.059.3.369-.143.758-.234,1.525-.35,2.32a2.18,2.18,0,0,0,.648-.5.622.622,0,0,1,.412-.326,12.431,12.431,0,0,1,3.728-1.895,11.761,11.761,0,0,1,6.139.05c.235.062.261.155.163.37-.315.689-.609,1.387-.94,2.15a4.913,4.913,0,0,0,.94-.523c.173-.146.33-.322.585-.315a21.447,21.447,0,0,1,5.44-1.78,28.336,28.336,0,0,1,6.7-.315,33.216,33.216,0,0,1,9.078,1.83c.207.073.349.119.273.423-1.6,6.364-3.168,12.736-4.789,19.1a14.371,14.371,0,0,1-2.837,5.7,11.9,11.9,0,0,1-6.688,3.972,24.819,24.819,0,0,1-13.771-.612,13.3,13.3,0,0,1-2.115-.974c-.223-.122-.308-.2-.135-.459q1.438-2.123,2.837-4.272c.152-.233.264-.184.459-.086a15.6,15.6,0,0,0,7.849,1.707,7.421,7.421,0,0,0,6.6-4.6c-.062-.241.123-.395.206-.585a3.881,3.881,0,0,0,.25-.918,17.41,17.41,0,0,1-2.836,1.368,13.666,13.666,0,0,1-5.874.668,9.266,9.266,0,0,1-4.32-1.371,7.766,7.766,0,0,1-3.681-5.863,12.049,12.049,0,0,1,1.926-8.18A.563.563,0,0,1,596.13,171.87Z" transform="translate(-532.478 -155.705)"/><path class="a" d="M1285.595,59.706h5.085l-.864,3.563.786-.651a.84.84,0,0,1,.506-.39,17.539,17.539,0,0,1,7.706-3.057,14.776,14.776,0,0,1,10.393,1.889,8.859,8.859,0,0,1,4.282,6.187,11.626,11.626,0,0,1-1.446,7.68,14,14,0,0,1-7.756,6.372,17.646,17.646,0,0,1-11.377.478,10.6,10.6,0,0,1-6.25-4.642,8.824,8.824,0,0,1-1.194-5.482,12.314,12.314,0,0,1,2.131-5.841.594.594,0,0,1,.307-.415c.09-.15.253-.255.291-.482-1.264,0-2.511,0-3.759,0-.374,0-.831-.108-1.1.065s-.231.678-.317,1.039q-1.821,7.651-3.622,15.307c-.066.279-.164.4-.484.394q-3.591-.026-7.183,0c-.368,0-.392-.1-.314-.419q1.824-7.607,3.626-15.22c.019-.081.023-.165.034-.248a.82.82,0,0,1,.135-.514c.138-.31.065-.419-.3-.412-1.156.022-2.312,0-3.468.014-.289,0-.348-.056-.272-.352q.579-2.258,1.107-4.529c.06-.259.153-.332.411-.329,1.17.014,2.34,0,3.51.012.279,0,.4-.05.469-.359a16.906,16.906,0,0,1,1.43-4.29,9.281,9.281,0,0,1,6.514-5.068,17.117,17.117,0,0,1,8.138.1,11.31,11.31,0,0,1,3.649,1.781c.256.182.24.282.032.489q-1.762,1.754-3.5,3.535c-.21.216-.342.251-.607.07a5.56,5.56,0,0,0-4.216-.871,3.558,3.558,0,0,0-2.724,2.04,16.782,16.782,0,0,0-.832,2.551h.613A.364.364,0,0,1,1285.595,59.706Z" transform="translate(-1168.5 -49.568)"/><path class="a" d="M289.31,168.2a3.993,3.993,0,0,0-2.458-1.006,14.95,14.95,0,0,0-8.8,1.375c-.546.253-.548.248-.9-.248l-2.479-3.533a21.246,21.246,0,0,1,3.958-1.666,25.134,25.134,0,0,1,10.919-1.015,9.992,9.992,0,0,1,5.425,2.147,6.521,6.521,0,0,1,2.279,4.916,15.829,15.829,0,0,1-.692,4.474c-.847,3.55-1.713,7.1-2.552,10.647-.075.319-.2.382-.5.381-2.187-.011-4.373-.018-6.56,0-.379,0-.45-.128-.4-.442a1.561,1.561,0,0,1-.018-.6,3.4,3.4,0,0,0,.08-.7c-.3.191-.565.4-.842.591a11.347,11.347,0,0,1-5.259,1.83,10.963,10.963,0,0,1-5.21-.568,3.7,3.7,0,0,1-1.7-1.006,5.924,5.924,0,0,1-2.189-3.11,6.882,6.882,0,0,1,2.655-7.3,13.757,13.757,0,0,1,5.914-2.424,28.642,28.642,0,0,1,7.565-.278c.6.047,1.193.088,1.788.145.144.014.246.007.286-.151a2.714,2.714,0,0,0-.075-2.144A.536.536,0,0,1,289.31,168.2Z" transform="translate(-252.133 -152.522)"/><path class="a" d="M55.124,66.479C55.285,66,55.285,66,54.8,66H43.186c.317-1.308.623-2.573.931-3.837.151-.62.346-1.233.449-1.861.064-.392.246-.435.58-.435q11.346.012,22.693.006c2.939,0,5.879.005,8.818-.007.33,0,.383.057.3.385q-.685,2.683-1.314,5.379c-.076.329-.218.376-.506.375-3.692-.008-7.383,0-11.075-.014-.374,0-.509.1-.6.471Q60.6,78.639,57.717,90.814c-.064.272-.181.34-.449.339q-3.824-.016-7.648,0c-.3,0-.362-.047-.286-.364q2.8-11.661,5.577-23.327c.051-.216.091-.434.136-.651A.32.32,0,0,1,55.124,66.479Z" transform="translate(-43.186 -59.001)"/><path class="a" d="M1779.051,168.2a12.4,12.4,0,0,1,3.73-1.9,11.777,11.777,0,0,1,6.142.052c.244.064.247.166.155.374q-1.154,2.629-2.285,5.267c-.1.241-.193.283-.457.215a8.959,8.959,0,0,0-6.122.359,7.757,7.757,0,0,0-4.333,5.6q-1.183,4.917-2.323,9.845c-.068.293-.191.336-.447.335-2.409-.008-4.818-.012-7.227,0-.347,0-.368-.091-.3-.388q2.456-10.219,4.9-20.441c.093-.388.042-.92.34-1.119.272-.182.753-.055,1.143-.055,2.019,0,4.038,0,6.057-.006.284,0,.379.03.316.36-.146.763-.232,1.537-.348,2.346a3.061,3.061,0,0,0,.644-.521A.619.619,0,0,1,1779.051,168.2Z" transform="translate(-1621.585 -156.195)"/><path class="a" d="M1120.473,170.9c-.792,3.326-1.571,6.607-2.355,9.887q-1.4,5.872-2.807,11.744c-.067.283-.167.373-.464.372q-3.615-.02-7.229,0c-.3,0-.364-.046-.287-.367q2.549-10.608,5.064-21.223c.08-.337.217-.421.553-.419C1115.44,170.91,1117.933,170.9,1120.473,170.9Z" transform="translate(-1018.353 -160.752)"/><path class="b" d="M1181.351,60.316c1.3,0,2.59.009,3.885-.006.3,0,.356.083.287.358-.435,1.75-.867,3.5-1.28,5.257-.063.267-.154.36-.434.359q-3.927-.016-7.854,0c-.3,0-.343-.08-.276-.35q.657-2.646,1.287-5.3a.35.35,0,0,1,.416-.325C1178.7,60.323,1180.028,60.316,1181.351,60.316Z" transform="translate(-1080.991 -59.412)"/><path class="c" d="M145.8,75.278c-1.839,0-3.678.014-5.517-.011-.388-.006-.52.125-.6.478q-1.409,6.034-2.841,12.063-1.27,5.362-2.55,10.722c-.125.526-.267,1.049-.363,1.58-.044.245-.137.33-.377.33q-3.887-.007-7.774-.006c-.1,0-.257.058-.261-.112,0-.138.1-.222.253-.214.1,0,.2,0,.293,0,2.354,0,4.709-.009,7.063.009.355,0,.472-.121.548-.444q1.519-6.457,3.06-12.91,1.083-4.573,2.157-9.148c.172-.728.362-1.454.5-2.188.071-.373.224-.488.606-.486,3.65.015,7.3,0,10.95.02a.561.561,0,0,0,.664-.526c.379-1.634.792-3.261,1.192-4.891.02-.081.043-.161.064-.241.029-.115.072-.22.22-.193.186.034.15.184.123.3-.13.554-.273,1.1-.408,1.656-.307,1.252-.626,2.5-.911,3.76-.083.368-.239.469-.615.465C149.451,75.266,147.626,75.278,145.8,75.278Z" transform="translate(-118.634 -67.472)"/><path class="d" d="M768.509,225.526a15.616,15.616,0,0,0,2.906,1.212,24.376,24.376,0,0,0,4.112.808,25.487,25.487,0,0,0,4.2.146,18.422,18.422,0,0,0,7.677-1.8,11.571,11.571,0,0,0,4.876-4.765,23.668,23.668,0,0,0,2.133-6.112q2.047-8.235,4.1-16.47c.037-.15.029-.391.274-.319s.1.276.065.425q-2.106,8.457-4.213,16.914A25.093,25.093,0,0,1,792.812,221a11.633,11.633,0,0,1-6.411,5.771,18.491,18.491,0,0,1-5.1,1.112,24.51,24.51,0,0,1-11-1.357c-.626-.26-1.224-.588-1.835-.884Z" transform="translate(-707.837 -185.79)"/><path class="c" d="M1779.092,202.706c-1.184,0-2.367,0-3.551,0-.133,0-.355.08-.348-.166s.226-.155.359-.156c2.27-.005,4.54-.01,6.81,0,.324,0,.451-.1.527-.42.789-3.373,1.553-6.754,2.414-10.109a7.485,7.485,0,0,1,4.674-5.439,8.878,8.878,0,0,1,4.14-.455,7.778,7.778,0,0,1,1.671.312c.268.088.265-.154.321-.279.525-1.181,1.037-2.367,1.552-3.552.222-.51.441-1.02.663-1.53.055-.126.1-.266.295-.188.225.088.1.228.055.339-.491,1.15-.988,2.3-1.482,3.445-.247.574-.5,1.146-.738,1.724-.109.267-.222.361-.557.288a9.4,9.4,0,0,0-6.229.453,7.5,7.5,0,0,0-3.294,3.2,15.5,15.5,0,0,0-1.328,4.234c-.624,2.587-1.24,5.175-1.83,7.77-.1.433-.278.549-.7.539C1781.376,202.687,1780.234,202.706,1779.092,202.706Z" transform="translate(-1630.417 -169.741)"/><path class="d" d="M1507.992,257.588c.56.24,1.116.492,1.682.717a14.057,14.057,0,0,0,3.832.886,16.718,16.718,0,0,0,2.372.058,18.585,18.585,0,0,0,7.274-1.71,14.838,14.838,0,0,0,4.461-3.157,12.422,12.422,0,0,0,3.336-6.41,10.432,10.432,0,0,0-.149-4.985c-.1-.318-.219-.628-.329-.942-.032-.088.009-.1.085-.085a8.336,8.336,0,0,1,.853,3.106,12.164,12.164,0,0,1-2.915,8.943,15.251,15.251,0,0,1-8.368,5,19.747,19.747,0,0,1-4.031.523,15.411,15.411,0,0,1-5.646-.752,15.159,15.159,0,0,1-2.244-1,.388.388,0,0,1-.214-.187Z" transform="translate(-1385.549 -225.872)"/><path class="c" d="M1120.643,202.192c-1.128,0-2.256.007-3.384-.007-.183,0-.517.129-.53-.114-.017-.323.333-.2.53-.2,2.2-.008,4.4-.015,6.6,0,.381,0,.514-.121.6-.484.809-3.426,1.641-6.847,2.462-10.27q1.129-4.71,2.249-9.423c.1-.431.2-.865.3-1.3.033-.138.088-.292.27-.251.214.048.116.208.085.337q-1.069,4.469-2.138,8.937-1.356,5.66-2.716,11.32c-.077.323-.16.647-.208.976-.054.369-.224.494-.609.485C1122.983,202.174,1121.813,202.192,1120.643,202.192Z" transform="translate(-1026.993 -169.226)"/><path class="c" d="M605.3,242.873l-.3.421a2.542,2.542,0,0,0-1.545.035,7.347,7.347,0,0,0-5.876,5.658c-.912,3.368-1.644,6.785-2.439,10.184-.087.374-.23.516-.636.512-2.311-.021-4.622-.01-6.933-.01-.07,0-.139,0-.209,0-.111,0-.236.006-.245-.154s.108-.171.225-.173c.1,0,.195,0,.292,0,2.214,0,4.427,0,6.641.005.32,0,.467-.051.552-.423.646-2.837,1.333-5.664,2-8.5a13.751,13.751,0,0,1,1.056-3.365,7.357,7.357,0,0,1,5.547-4.089A9.544,9.544,0,0,1,605.3,242.873Z" transform="translate(-541.645 -226.708)"/><path class="c" d="M1298.988,238.9l-.307.415c-.033-.023-.067-.067-.1-.067-1.072-.007-2.144-.009-3.216-.014-.227,0-.253.155-.294.329-.408,1.727-.823,3.451-1.235,5.177q-1.11,4.651-2.217,9.3c-.131.553-.264,1.105-.375,1.662-.051.257-.175.335-.428.334-2.41-.007-4.819,0-7.229-.008-.132,0-.355.084-.35-.163s.224-.159.359-.159c2.256,0,4.512-.015,6.769.007.4,0,.542-.109.631-.493q1.611-6.9,3.254-13.8c.166-.7.347-1.4.5-2.1.065-.308.185-.43.522-.424C1296.509,238.913,1297.748,238.9,1298.988,238.9Z" transform="translate(-1179.584 -223.066)"/><path class="c" d="M474.084,220.985a7.735,7.735,0,0,1,.692,4.662c-.281,2.065-.9,4.056-1.365,6.081-.561,2.445-1.177,4.877-1.733,7.323-.106.465-.3.58-.75.575-2.1-.024-4.205-.01-6.308-.011-.111,0-.223,0-.334-.01a.13.13,0,0,1-.128-.136c-.006-.1.033-.166.135-.174s.222-.009.334-.009c2.061,0,4.122-.008,6.183.008a.449.449,0,0,0,.529-.417c.93-3.9,1.877-7.788,2.809-11.683a14.736,14.736,0,0,0,.441-2.7,8.6,8.6,0,0,0-.587-3.422C473.968,220.981,474.009,220.966,474.084,220.985Z" transform="translate(-428.969 -206.65)"/><path class="e" d="M300.144,412.36c4.635,2.651,8.978,1.793,13.179-1.026l-.147.895a3.8,3.8,0,0,1-1.424.99,11.8,11.8,0,0,1-4.346,1.219,11.388,11.388,0,0,1-3.8-.2,13.22,13.22,0,0,1-1.577-.524,6.891,6.891,0,0,1-.98-.57C300.681,412.956,300.255,412.839,300.144,412.36Z" transform="translate(-278.665 -381.095)"/><path class="f" d="M1189.551,75.9c-1.295,0-2.59,0-3.885,0-.127,0-.357.093-.345-.154.01-.208.221-.169.368-.169,2.451,0,4.9-.01,7.353.007a.5.5,0,0,0,.587-.458c.356-1.553.738-3.1,1.112-4.65a2.009,2.009,0,0,0,.072-.282c.016-.178.108-.251.276-.222.23.04.093.2.07.291-.315,1.321-.638,2.641-.957,3.961-.107.445-.214.889-.308,1.337-.054.257-.178.353-.456.35C1192.141,75.9,1190.846,75.9,1189.551,75.9Z" transform="translate(-1089.85 -68.261)"/><path class="f" d="M365.285,229.611a.678.678,0,0,1,.245.323,11.97,11.97,0,0,0-5.817-.6,16.509,16.509,0,0,0-5.123,1.516c-.064.027-.127.057-.188.09-.137.074-.21-.015-.27-.112-.082-.13-.01-.208.108-.258a19.357,19.357,0,0,1,4.5-1.468,16.381,16.381,0,0,1,2.821-.18,9.781,9.781,0,0,1,3.574.681C365.185,229.627,365.233,229.663,365.285,229.611Z" transform="translate(-328.108 -213.931)"/><path class="g" d="M64.228,139.015c-.007.115.037.241-.076.331l-10.479,0c-.111,0-.223,0-.334,0s-.23-.02-.218-.18c.01-.13.107-.145.21-.147l.209,0Z" transform="translate(-52.29 -131.537)"/><path class="c" d="M321.078,423.448a11.129,11.129,0,0,0,4.428.756,11.581,11.581,0,0,0,6.55-2.053,1.49,1.49,0,0,1,.221-.113c-.02.195.047.4-.088.58a17.838,17.838,0,0,1-2.115,1.064,12.432,12.432,0,0,1-3.894.781,10.786,10.786,0,0,1-4.343-.576c-.284-.111-.562-.237-.843-.356C320.975,423.455,320.991,423.414,321.078,423.448Z" transform="translate(-297.766 -390.903)"/><path class="h" d="M843.915,419.016a1.151,1.151,0,0,1-.206.585c-.754.276-1.476.633-2.249.865a10.682,10.682,0,0,1-2.9.468,14.1,14.1,0,0,1-4.133-.318,11.449,11.449,0,0,1-2.453-1.023c-.021-.073-.01-.113.078-.076a10.552,10.552,0,0,0,3.885,1.1A13.592,13.592,0,0,0,843.915,419.016Z" transform="translate(-766.032 -388.134)"/><path class="c" d="M1439.405,124.981h-.422a18.342,18.342,0,0,1,.691-2.045,3.7,3.7,0,0,1,3.405-2.131,5.6,5.6,0,0,1,3.272.766c.116.071.264.1.323.248l0,0a12.072,12.072,0,0,0-1.751-.632,5.59,5.59,0,0,0-2.907.167,4,4,0,0,0-2.435,2.907C1439.511,124.5,1439.464,124.74,1439.405,124.981Z" transform="translate(-1322.31 -114.843)"/><path class="c" d="M1530.986,90.924c.226.122.375.015.535-.148q1.7-1.718,3.412-3.424c.069-.069.138-.138.209-.2.119-.11.224-.064.329.028.136.119.031.192-.045.269-1.246,1.249-2.481,2.509-3.746,3.737-.307.3-.482-.111-.692-.262Z" transform="translate(-1406.623 -83.949)"/><path class="i" d="M1283.731,238.012a1.087,1.087,0,0,1-.135.514c-.114-.149-.279-.1-.426-.1-.765,0-1.53.006-2.294-.009-.151,0-.429.134-.437-.139-.008-.257.265-.18.43-.182.793-.007,1.585,0,2.378,0A.76.76,0,0,0,1283.731,238.012Z" transform="translate(-1177.019 -222.26)"/><path class="j" d="M1504.443,181.86a1.934,1.934,0,0,1-.506.39c.149-.643.294-1.288.448-1.93.031-.128.109-.24.264-.2.2.051.086.186.067.3A7.3,7.3,0,0,0,1504.443,181.86Z" transform="translate(-1381.835 -169.2)"/><path class="k" d="M859.6,181.58a1.54,1.54,0,0,1-.585.315l.412-1c.056-.136.113-.253.3-.173s.1.193.058.307C859.726,181.214,859.664,181.4,859.6,181.58Z" transform="translate(-790.823 -169.738)"/><path class="l" d="M1922.5,181.334a.958.958,0,0,1-.411.326c.056-.41.11-.82.168-1.229a.181.181,0,0,1,.194-.177c.139.006.129.119.132.215A6.4,6.4,0,0,0,1922.5,181.334Z" transform="translate(-1765.033 -169.329)"/><path class="l" d="M734.5,181.337a.943.943,0,0,1-.412.325c.056-.41.111-.819.168-1.229a.181.181,0,0,1,.194-.177c.139.006.13.119.132.215A6.376,6.376,0,0,0,734.5,181.337Z" transform="translate(-676.334 -169.333)"/><path class="m" d="M1769.8,230.163l-.085.085-.659-1.168A3.429,3.429,0,0,1,1769.8,230.163Z" transform="translate(-1624.79 -214.074)"/><path class="n" d="M311.86,433.479l-.084.083a2.309,2.309,0,0,1-.848-.578Z" transform="translate(-288.548 -400.934)"/><path class="o" d="M576.6,212.867l-.083.084-.493-.832A2.17,2.17,0,0,1,576.6,212.867Z" transform="translate(-531.486 -198.532)"/><path class="p" d="M827.6,422.236l-.077.077a1.145,1.145,0,0,1-.415-.329A1.04,1.04,0,0,1,827.6,422.236Z" transform="translate(-761.578 -390.854)"/><path class="d" d="M1503.351,426.161a.6.6,0,0,1-.423-.26c.219.067.352.111.425.258Z" transform="translate(-1380.91 -394.444)"/><path class="q" d="M672.889,186.135c0,.028,0,.056,0,.083a8.674,8.674,0,0,1-1.6.093c-.232-.032-.488.043-.71-.082a.909.909,0,0,1-.1-.064c-.126-.107-.232-.02-.341.035a.835.835,0,0,1-.867,0,.66.66,0,0,0-.6-.056,1.506,1.506,0,0,1-1.015,0,.6.6,0,0,0-.657.093c-.057.055-.138.122-.216.052s0-.155,0-.234c.029-.232.075-.464.082-.7a.9.9,0,0,0-.748-1.039,16.191,16.191,0,0,0-2.326-.377,14.086,14.086,0,0,0-2.814.042,8.628,8.628,0,0,0-4.46,1.764c-.109.084-.231.151-.347.226s-.23.163-.344.109a1.341,1.341,0,0,0-1.068.1c-.251.082-.537.19-.782-.059a.113.113,0,0,0-.182.012c-.159.3-.364.163-.559.063-.211-.108-.411-.254-.65-.068-.432-.317-.931.281-1.363-.1-.062-.054-.128.012-.178.06a.288.288,0,0,1-.3.091,2.91,2.91,0,0,0-1.368-.09c-.139.006-.25-.029-.224-.207.382-.564.354-.948-.092-1.306a.393.393,0,0,0-.259-.115,18.31,18.31,0,0,0-3.93.209,7.691,7.691,0,0,0-2.906,1.463c-.511.007-1.012.112-1.529.123a5.509,5.509,0,0,0-1.293.039c-.027.007-.071.027-.079.015-.187-.27-.445-.016-.632-.082a3.079,3.079,0,0,0-1.638-.042c-.254.047-.47-.135-.723-.164a7.139,7.139,0,0,0-1.172.155,5.983,5.983,0,0,1-1.023-.108c-.035,0-.043-.063-.02-.1.418-1.779.841-3.557,1.247-5.338.063-.277.239-.262.437-.262,1.769,0,3.538.008,5.307-.006.347,0,.406.146.349.429a8.67,8.67,0,0,0-.159,1.651.66.66,0,0,0,.355.689.7.7,0,0,0,.811-.115,16.939,16.939,0,0,1,2.147-1.569,10.493,10.493,0,0,1,4.3-1.432,10.688,10.688,0,0,1,2.885.18c.239.04.278.113.18.324-.187.4-.353.815-.534,1.221a.9.9,0,0,0,.132,1.079.856.856,0,0,0,1.114.044,18.591,18.591,0,0,1,7.09-2.635,16.007,16.007,0,0,1,2.932-.28c.719.008,1.44-.013,2.159,0a30.308,30.308,0,0,1,4.738.529,36.893,36.893,0,0,1,4.189,1.054c.358.11.487.235.374.643-.34,1.227-.628,2.47-.936,3.706A.29.29,0,0,0,672.889,186.135Z" transform="translate(-584.468 -169.046)"/><path class="r" d="M892.043,239.347c-.475,2.093-.925,4.192-1.512,6.257a5.748,5.748,0,0,1-5.321,4.015,6.419,6.419,0,0,1-3.257-.489,2.073,2.073,0,0,1-.8-.58c-.977-2.628-.182-4.877,1.532-6.893a8.219,8.219,0,0,1,5.257-2.714,11.4,11.4,0,0,1,3.768.113C891.863,239.085,892.12,239.04,892.043,239.347Z" transform="translate(-810.723 -223.015)"/><path class="s" d="M1015.8,305.17c-.086.4-.2.8-.249,1.213a5.164,5.164,0,0,1-.454,1.051c-.047.137-.205.057-.287-.007a.727.727,0,0,0-.78-.1.165.165,0,0,1-.122.01c-.451-.257-.926-.008-1.392-.06a7.615,7.615,0,0,0-1.464.065,1.485,1.485,0,0,1-.759-.052c-.233-.1-.5.122-.79.032-.213-.067-.329-.151-.275-.365.149-.6.313-1.193.471-1.789a.866.866,0,0,1,.479-.115c.523.091,1.053,0,1.577.064.028,0,.065.017.082,0,.334-.249.664-.041,1-.014.373.03.75.044,1.122.09a5.407,5.407,0,0,0,1.484-.149C1015.594,305.029,1015.717,305.016,1015.8,305.17Z" transform="translate(-928.463 -283.652)"/><path class="t" d="M795.655,300.333c-.056.479-.136.956-.161,1.436-.028.551-.206.754-.749.593a9.388,9.388,0,0,0-1.146-.15c-.267-.046-.525.216-.846.116a2.466,2.466,0,0,0-1.172.073,2.072,2.072,0,0,1-.8-.118,1.587,1.587,0,0,0-1.066.11.435.435,0,0,1-.661-.415,6.447,6.447,0,0,1,.329-1.98.664.664,0,0,0,.716.31,5.245,5.245,0,0,1,1.459-.052,19.135,19.135,0,0,1,2.14.069.341.341,0,0,0,.173-.017A7.631,7.631,0,0,1,795.655,300.333Z" transform="translate(-726.71 -279.065)"/><path class="u" d="M1023.417,251.977c.164-.064-.065.35.12.13.253-.3.5-.229.776-.141a1.224,1.224,0,0,0,.93,0,.683.683,0,0,1,.714.053.675.675,0,0,0,.808-.015c.153-.091.313-.249.415.054l-.029,0,.016.023.012-.026a6.083,6.083,0,0,1,1.123.137.193.193,0,0,0,.185-.068.381.381,0,0,1,.584-.032c.123.1.3.034.447.046-.078.573-.291,1.111-.417,1.672a.781.781,0,0,1-.632.135,7.779,7.779,0,0,0-1.6.1,5.963,5.963,0,0,1-1.677-.055,4.03,4.03,0,0,0-1.543.005c-.343.061-.553-.01-.653-.348A9.764,9.764,0,0,1,1023.417,251.977Z" transform="translate(-941.099 -234.972)"/><path class="v" d="M630.127,250.624a2.649,2.649,0,0,0,1.555.039,1.593,1.593,0,0,1,1.2.075.305.305,0,0,0,.281,0,.768.768,0,0,1,.755-.039c.279.118.172-.062.049-.2.257-.03.325.213.519.216s.4.256.513-.1c.025-.077.114-.037.181-.012.162.06.005.2.116.32.312-.427.7.088,1.078-.09a.454.454,0,0,1,.589.048c.113.113.322-.193.594-.144a4.545,4.545,0,0,0,.682.056,11.143,11.143,0,0,1-1.253,1.254.886.886,0,0,1-.925.271c-.941-.1-1.873,0-2.808-.018-.524-.011-1.052-.018-1.573-.007a6.713,6.713,0,0,0-1.6-.015c-.133.034-.373.07-.286-.231A6.892,6.892,0,0,1,630.127,250.624Z" transform="translate(-580.742 -233.703)"/><path class="t" d="M624.21,302.036a11.132,11.132,0,0,1-.333,1.451.269.269,0,0,1-.384.211.982.982,0,0,0-.925.189c-.15.1-.273.078-.349-.071-.141-.277-.415.015-.538-.12-.263-.288-.3.017-.425.123-.1.084-.21.175-.336.111a2.636,2.636,0,0,0-1.49-.073,5.555,5.555,0,0,1-1-.128c-.867-.091-.874-.126-.648-.993a2.542,2.542,0,0,1,.237-.868c1.092-.041,2.184.015,3.276.012a2.889,2.889,0,0,0,1.473-.1c.081-.044.151.047.224.083a.707.707,0,0,0,.6.05A.544.544,0,0,1,624.21,302.036Z" transform="translate(-569.642 -280.685)"/><path class="v" d="M805.9,250.1c.047.048.132.142.135.139.283-.243.638.127.924-.112.08-.067.193,0,.271.058.227.161.427.249.58-.092.033-.074.176-.11.211-.027.205.489.5.088.751.086.052,0,.12-.062.152-.044.367.2.839-.125,1.181.245.089.1.286.244.331-.089a.155.155,0,0,1,.284-.08c.326.4.689.147,1,.034.253-.092.452-.237.716-.045.146.106.324.006.487.013a21.306,21.306,0,0,0-1.508,1.67,6.211,6.211,0,0,1-1.6.1,18.036,18.036,0,0,0-2.1-.065,18.581,18.581,0,0,1-2.758-.078.08.08,0,0,1-.065-.121A6.048,6.048,0,0,1,805.9,250.1Z" transform="translate(-741.219 -233.259)"/><path class="e" d="M874.007,241.233a3.043,3.043,0,0,1-.995-2.259,7.632,7.632,0,0,1,6.246-7.787,11.726,11.726,0,0,1,5.571.165c.244.064.386.154.209.417-.191.116-.378.019-.564-.013a10.765,10.765,0,0,0-5.682.316,7.311,7.311,0,0,0-5.127,6.121,4.6,4.6,0,0,0,.336,2.814C874.041,241.082,874.08,241.155,874.007,241.233Z" transform="translate(-803.644 -215.767)"/><path class="w" d="M626.245,269c.058.283.3.184.387.111.214-.188.375-.09.582-.011a3.079,3.079,0,0,0,1.078.023c.665.014,1.339-.012,2,0a10.581,10.581,0,0,1,2.227.052,1.385,1.385,0,0,0,.915-.172l-.92,1.337a1.318,1.318,0,0,1-.816.258c-.688-.012-1.366.164-2.057.131a9.776,9.776,0,0,0-1.28-.12c-.081.007-.188-.048-.245,0-.507.4-.983.029-1.467-.055-.144-.025-.237.061-.355.077-.212.028-.438.045-.384-.29A6.909,6.909,0,0,1,626.245,269Z" transform="translate(-577.195 -250.655)"/><path class="x" d="M622.333,285c.019.177.243.278.28.23.34-.444.7.17,1.058-.045.158-.1.225.146.311.3.482-.582,1.091-.271,1.66-.252a3.693,3.693,0,0,0,1.526-.061,2.043,2.043,0,0,1,.684,0,3.609,3.609,0,0,0,1.084-.174l-.752,1.672c-.331-.158-.659.091-.992,0a13.991,13.991,0,0,0-2.045-.017c-.811-.1-1.626-.025-2.438-.063a.8.8,0,0,0-.559.078c-.12.084-.132-.079-.152-.167A8.336,8.336,0,0,1,622.333,285Z" transform="translate(-573.616 -265.32)"/><path class="x" d="M799.266,286.59c-.321.05-.608.244-.975-.007-.169-.116-.567,0-.8.094-.209.081-.236-.105-.378-.087a13.222,13.222,0,0,1-1.9.006,13.858,13.858,0,0,0-1.772.074c-.285.032-.447-.114-.442-.414a5.1,5.1,0,0,1,.418-1.254,4.864,4.864,0,0,0,2.266.059c.081-.005.168-.067.244-.037a4.2,4.2,0,0,0,1.806.037,2,2,0,0,1,.818.072,1.141,1.141,0,0,0,.738.01.518.518,0,0,1,.48.026Z" transform="translate(-730.321 -265.322)"/><path class="w" d="M804.355,271.419c-.284-.069-.519.131-.813.127-.429-.007-.822-.273-1.261-.129-.38.125-.792-.025-1.172.12-.038.014-.09.037-.119.022-.749-.371-1.512.085-2.26-.041-.25-.042-.6.128-.727-.266a4.342,4.342,0,0,1,.585-1.254c.612.066,1.229.069,1.84.1.859.047,1.711-.1,2.577.015a3.012,3.012,0,0,0,1.412,0,1.84,1.84,0,0,1,.691.048Z" transform="translate(-734.908 -251.573)"/><path class="x" d="M1021.1,289.143c-.257-.184-.561-.006-.747.051a5.9,5.9,0,0,1-1.946-.005c-.313,0-.636.114-.864-.286.063.326-.12.335-.314.32a11.733,11.733,0,0,0-2.173-.026c-.017,0-.039-.035-.058-.054a8.284,8.284,0,0,1,.334-1.421c.251,0,.514.045.7-.194a.041.041,0,0,1,.038-.013c.237.272.56-.006.8.121a1.087,1.087,0,0,0,.6.084,12.186,12.186,0,0,1,1.933.05,4.086,4.086,0,0,0,1.386.05.692.692,0,0,1,.639.069Z" transform="translate(-933.767 -267.625)"/><path class="y" d="M1025.1,274.588a2.847,2.847,0,0,0-1.1.12c-.036.015-.1.032-.115.015-.355-.363-.847-.14-1.249-.208a3.854,3.854,0,0,0-1.622.02c-.153.042-.345.1-.479-.1-.087-.131-.185-.086-.312,0-.315.227-.333.21-.426-.212-.225.286-.462.516-.8.192a10.885,10.885,0,0,1,.334-1.421.872.872,0,0,0,.754.219,2.621,2.621,0,0,1,1.532.06c.243.136.557,0,.844.024a5.328,5.328,0,0,0,1.383-.112c.534-.1,1.062.107,1.588-.024Z" transform="translate(-937.435 -254.324)"/><path class="c" d="M879.33,246.7a4.818,4.818,0,0,1-.51-2.4,7.093,7.093,0,0,1,1.654-4.391,8.227,8.227,0,0,1,5.6-2.928,12.028,12.028,0,0,1,4.288.258.37.37,0,0,1-.073.331.19.19,0,0,0-.162-.162,10.007,10.007,0,0,0-7.673,1.283,7.242,7.242,0,0,0-3.305,5.395,4.744,4.744,0,0,0,.293,2.483c.035.081.07.156-.04.205C879.353,246.766,879.33,246.742,879.33,246.7Z" transform="translate(-808.968 -221.229)"/><path class="u" d="M1099.617,251.252c-.054-.007-.129-.013-.125-.077.006-.12.134-.121.208-.174C1099.7,251.093,1099.716,251.191,1099.617,251.252Z" transform="translate(-1011.197 -234.163)"/><path class="q" d="M1318.5,176.669c-.437-.3-.71-.763-1.159-1.061a5.307,5.307,0,0,0-2.825-.852,10.261,10.261,0,0,0-2.983.179,8.281,8.281,0,0,0-3.369,1.831c-.062.055-.129.1-.194.155a12.958,12.958,0,0,1-1.354.088c-.531-.061-1.048.276-1.565.006-.426.241-.93-.289-1.34.137-.058.061-.137.01-.184-.038a.734.734,0,0,0-.742-.15,3.424,3.424,0,0,1-1.14-.115c-.04,0-.054-.053-.029-.1.183-.361.551-.624.509-1.1s-.194-.65-.671-.651c-1.531,0-3.062,0-4.592,0-.1,0-.195,0-.292,0-.82-.023-.821-.024-1.03.8-.1.375-.185.751-.277,1.126-.156.264-.416.111-.608.112a3.58,3.58,0,0,0-1.291.128c-.258.1-.489-.056-.727-.108a.607.607,0,0,0-.51.071c-.231.154-.451.2-.632-.094-.084-.139-.212-.133-.277.035-.058.149-.179.222-.285.122-.483-.458-.984-.195-1.485-.069-.2.051-.417.129-.454-.2a2.686,2.686,0,0,1,.185-.934c.182-.615-.078-.988-.7-.988-.961,0-1.922-.006-2.883,0-.291,0-.4-.053-.308-.385.259-.977.488-1.963.707-2.95.071-.321.19-.45.55-.44,1.1.03,2.2,0,3.3.018a.5.5,0,0,0,.592-.435c.062-.28.153-.553.232-.829.141.175.453.053.543.309.023.066.033.029.074.022a11.863,11.863,0,0,1,2.132-.2.826.826,0,0,0,.286-.029,1.2,1.2,0,0,1,.963.038,1.621,1.621,0,0,0,.819.04,2.681,2.681,0,0,1,1.371.153c0,.753.17.92.931.92,1.517,0,3.035.012,4.552-.009.362,0,.456.075.359.431-.192.708-.351,1.425-.523,2.138a.773.773,0,0,0,.339.9.713.713,0,0,0,.945-.061,16.1,16.1,0,0,1,3.463-2.287,17.673,17.673,0,0,1,5.794-1.7,14.18,14.18,0,0,1,2.193-.156,13.406,13.406,0,0,1,8.089,2.845,8.61,8.61,0,0,1,2.418,3.381.771.771,0,0,1,.028.2c-.216.134-.54-.04-.708.263-.043.078-.18,0-.272-.028a.473.473,0,0,0-.44-.007.2.2,0,0,1-.336-.091.14.14,0,0,0-.174-.082c-.332.167-.74-.076-1.049.2-.02.018-.06.039-.075.03-.341-.192-.7.065-1.062-.062a2.208,2.208,0,0,0-1.373-.119A1.792,1.792,0,0,1,1318.5,176.669Z" transform="translate(-1181.425 -159.915)"/><path class="r" d="M1553.9,239.169a4.061,4.061,0,0,1,1.233,2.724,7.141,7.141,0,0,1-5.771,7.715,6.462,6.462,0,0,1-4.645-.572,1.589,1.589,0,0,1-.193-.15c-.13-.134-.306-.226-.316-.454-.009-.2-.234-.208-.343-.324a3.76,3.76,0,0,1-.515-1.657,7.185,7.185,0,0,1,4.839-7.62,7.441,7.441,0,0,1,4.905-.085A3.806,3.806,0,0,1,1553.9,239.169Z" transform="translate(-1417.907 -222.588)"/><path class="s" d="M1374,92.16a4.052,4.052,0,0,1,1.113-1.357c.345-.293.859-.186,1.306-.2.019,0,.056.058.058.091.017.3.186.25.324.114.18-.177.312-.144.505-.017.217.142.486.255.388-.22-.016-.077.012-.146.106-.127.075.015.1.082.1.16.034.464.01.357.4.264a2.107,2.107,0,0,0,.913-.254c.128.169.235.054.35-.022.057-.038.146-.1.186-.082.594.291,1.292-.111,1.88.311.253.182.164-.19.281-.277.283.129.567.462.882.045.465.32,1.034-.255,1.494.177a.48.48,0,0,0,.443.044.617.617,0,0,1,.476.052.367.367,0,0,0,.4-.006.656.656,0,0,1,.632-.064c.16.048.326.089.4-.149.056-.173.147-.071.252-.017a.882.882,0,0,0,.869.116,2.43,2.43,0,0,1,1.184.083c.2.032.012.312-.1.388a10.2,10.2,0,0,0-.787.81,3.372,3.372,0,0,0-.615.622c-.285.421-.607.384-.961.146a4.808,4.808,0,0,0-2.581-.624,5.6,5.6,0,0,0-2.3.243.584.584,0,0,0-.824-.036c-.187.153-.385.068-.591.02a4.023,4.023,0,0,0-1.3-.092c-.468.048-.961-.253-1.4.088a.127.127,0,0,1-.121,0c-.641-.369-1.323.018-1.99-.092a2.921,2.921,0,0,0-.92.046A.4.4,0,0,1,1374,92.16Z" transform="translate(-1262.759 -87.025)"/><path class="s" d="M1459.093,306.429c-.014.595-.048,1.19-.031,1.784.008.269-.127.369-.309.29-.278-.12-.535.058-.825-.036-.216-.07-.515.117-.777.19-.026.007-.054.037-.076.032-.729-.153-1.492.307-2.2-.125a.323.323,0,0,0-.318.007,3.158,3.158,0,0,1-1.069.2c-.173.01-.425.147-.356-.229a.085.085,0,0,0-.108-.093c-.408.125-.3-.2-.269-.353a8.917,8.917,0,0,1,.24-1.667c.372.063.741-.074,1.113-.014a7.764,7.764,0,0,0,1.713-.035c.452-.027.919.117,1.4.084a2.008,2.008,0,0,1,1.251.077C1458.67,306.66,1458.866,306.386,1459.093,306.429Z" transform="translate(-1334.896 -284.911)"/><path class="t" d="M1319.717,302.227c-.128.564-.254,1.129-.387,1.692a.586.586,0,0,1-.6.475c-.344.008-.7-.041-1.034-.041a5.439,5.439,0,0,1-1.534-.084c-.452-.135-.763.28-1.167.134-.076-.028-.215,0-.234-.045-.214-.467-.437-.136-.621,0a.781.781,0,0,1-.894.011.5.5,0,0,1-.193-.589,7.7,7.7,0,0,1,.394-1.555,22.072,22.072,0,0,0,2.283.067,2.863,2.863,0,0,0,.608-.076,1.933,1.933,0,0,1,.86.025c.614.1,1.244-.041,1.865.071C1319.281,302.354,1319.464,302.014,1319.717,302.227Z" transform="translate(-1206.888 -281.043)"/><path class="u" d="M1683.005,250c.306.186.717.077.992.355a.139.139,0,0,0,.189,0,1.28,1.28,0,0,1,1.1-.087c.255.075.538-.05.786.2.1.1.295-.3.543-.265.128.1-.134.2.006.281.088.049.188,0,.276-.052a.93.93,0,0,0,.347-.222.731.731,0,0,1,.086-.083c.251.441.552-.026.839.035.256.054.006.266.193.3a.541.541,0,0,1,.711-.043c.046.029.131.078.142.025.117-.544.488-.131.728-.2a4.1,4.1,0,0,1,.416,1.588c.088.269.006.383-.292.373-.885-.028-1.775-.035-2.655-.015a19.267,19.267,0,0,1-2-.047,5.623,5.623,0,0,0-.912.084.5.5,0,0,1-.494-.144A5.586,5.586,0,0,0,1683.005,250Z" transform="translate(-1545.935 -233.243)"/><path class="u" d="M1469.073,251a5.262,5.262,0,0,0,1.7.085c.228-.021.2.192.314.268.186-.358.509-.251.767-.184.171.045.3.112.454-.011.021-.017.062-.045.07-.039.4.333.831-.049,1.245.04a4.426,4.426,0,0,0,1.358-.1.606.606,0,0,1,.449.108,11.122,11.122,0,0,0-1.341,1.669,1.932,1.932,0,0,1-1.265.082.977.977,0,0,0-.8.1.369.369,0,0,1-.4.011,2.391,2.391,0,0,0-1.664-.076,10.142,10.142,0,0,1-1.695.094.276.276,0,0,1-.281-.211A7.2,7.2,0,0,1,1469.073,251Z" transform="translate(-1348.888 -234.162)"/><path class="u" d="M1356.165,151.789a8.091,8.091,0,0,0-1.769-.016.567.567,0,0,1-.436-.057.876.876,0,0,0-1-.02c-.22.123-.412-.047-.626-.041-.436.011-.864.37-1.313.062-.041-.028-.142,0-.2.03-.4.234-.595-.117-.85-.295a7.833,7.833,0,0,1,.338-1.419.6.6,0,0,1,.47-.122,16.38,16.38,0,0,0,2.531-.012c.785-.085,1.556.069,2.334.043a1.032,1.032,0,0,0,.515-.116.31.31,0,0,1,.5.206A15.338,15.338,0,0,1,1356.165,151.789Z" transform="translate(-1240.744 -141.387)"/><path class="z" d="M1697.482,313.861a5.647,5.647,0,0,1-.444,1.494.628.628,0,0,1-.631.451,1.071,1.071,0,0,0-.5.186c-.22.127-.383.13-.511-.115-.1-.186-.226-.239-.39-.066-.035.037-.1.1-.122.088a3.043,3.043,0,0,0-1.494-.035.365.365,0,0,1-.237-.048c-.383-.352-.77-.1-1.155-.022-.12.024-.233.082-.353.108-.509.11-.737-.067-.676-.564a4.742,4.742,0,0,1,.328-1.309,1.583,1.583,0,0,0,1.014.012,2.757,2.757,0,0,1,1.635.044,1.15,1.15,0,0,0,.583-.023,1.825,1.825,0,0,1,.919,0,.841.841,0,0,0,.53.039,1.06,1.06,0,0,1,.873.021c.139.07.289.081.367-.124A.2.2,0,0,1,1697.482,313.861Z" transform="translate(-1553.223 -291.758)"/><path class="u" d="M1326.323,251.615c.116.205.269.2.454.092a2.059,2.059,0,0,1,.875-.193.644.644,0,0,1,.73.41c.051-.315.122-.529.454-.392.063.026.135.02.132.12-.01.322.25.242.332.146a.736.736,0,0,1,.908-.114,1.077,1.077,0,0,0,.816-.07,2.651,2.651,0,0,1,.772-.012,2.243,2.243,0,0,0,.8.012,8.2,8.2,0,0,1-.334,1.421,6.576,6.576,0,0,1-1.721.422c-.209.057-.444-.09-.679-.117a8.479,8.479,0,0,0-1.861.065c-.275.029-.531-.183-.841-.078-.2.067-.429.028-.648.087a.406.406,0,0,1-.519-.464A5.535,5.535,0,0,1,1326.323,251.615Z" transform="translate(-1218.761 -234.612)"/><path class="e" d="M1536.59,240.715c.228.009.413.067.353.354-.043.2.193.249.213.413a4.271,4.271,0,0,1-1.825-3.134,7.148,7.148,0,0,1,6.232-7.973,6.62,6.62,0,0,1,3.794.476,2.12,2.12,0,0,1,.935.668c-.168.115-.29-.038-.42-.087a7.2,7.2,0,0,0-7.318,1.044,6.583,6.583,0,0,0-2.7,5.565,5.712,5.712,0,0,0,.556,2.459C1536.458,240.586,1536.481,240.684,1536.59,240.715Z" transform="translate(-1410.54 -215.185)"/><path class="aa" d="M1324.269,286.246a4.546,4.546,0,0,1-1.45.139,13.952,13.952,0,0,0-1.716-.044,13.779,13.779,0,0,1-1.892.1,2.382,2.382,0,0,1-1.212-.2,5.924,5.924,0,0,1,.334-1.421,6.345,6.345,0,0,1,1.31,0,1.542,1.542,0,0,0,.819-.034,1.632,1.632,0,0,1,.779-.042,3,3,0,0,0,1.073.007,4.61,4.61,0,0,1,.851.038,5.3,5.3,0,0,0,1.07-.006.306.306,0,0,1,.367.123A9.274,9.274,0,0,1,1324.269,286.246Z" transform="translate(-1211.44 -265.062)"/><path class="ab" d="M1462.1,289.674c-.322.209-.635.4-1,.063-.142-.132-.276.1-.421.078-.55-.081-1.117.163-1.659-.1-.292-.14-.556.08-.84.1-.628.052-1.253-.216-1.877.008a.239.239,0,0,1-.3-.156,4.883,4.883,0,0,1,.335-1.254c.2-.312.508-.07.764-.133.4-.1.822-.069,1.241-.145s.879,0,1.317-.04c.544-.05,1.076.121,1.608.073a4.547,4.547,0,0,1,1.171-.007A7.419,7.419,0,0,0,1462.1,289.674Z" transform="translate(-1337.905 -268.156)"/><path class="w" d="M1466.106,272.993c-.2.051-.367.205-.6.021-.161-.127-.3.172-.493.13a19.878,19.878,0,0,0-2.869-.11c-.151-.011-.43-.109-.453.22a5.9,5.9,0,0,0-.627-.059c-.353,0-.707.031-1.06.049a5.253,5.253,0,0,1,.667-1.588,2.242,2.242,0,0,0,1.292.076,4.966,4.966,0,0,1,1.979-.117c.493.177.862-.086,1.27-.026a8.768,8.768,0,0,0,1.561.066A6.478,6.478,0,0,0,1466.106,272.993Z" transform="translate(-1341.575 -252.98)"/><path class="ac" d="M1695,272.246a1.953,1.953,0,0,0,.928-.015,3.141,3.141,0,0,1,1.479.114c.282.1.519-.119.8-.119a5.363,5.363,0,0,1,.843.036,7.293,7.293,0,0,0,1.695-.041.449.449,0,0,1,.267.021c.282.151.342-.008.344-.247a4.835,4.835,0,0,1,.083,1.589,1.313,1.313,0,0,1-.923.074c-.363-.037-.709.014-1.062.011a5.566,5.566,0,0,1-1.4-.071c-.6-.159-1.16.181-1.752.174-.164,0-.32.058-.471-.069-.233-.195-.43.155-.663.063a.181.181,0,0,1-.034-.119c-.021-.188.043-.383-.043-.566Z" transform="translate(-1556.927 -253.403)"/><path class="ac" d="M1360.367,137.529c-.2-.109-.371-.327-.594.011-.1.146-.33-.018-.509-.007a3.667,3.667,0,0,1-1.207-.051,3.134,3.134,0,0,0-1.15.044c-.378.025-.755-.015-1.134.019a16.344,16.344,0,0,1-1.756-.015,4.353,4.353,0,0,1,.5-1.255.618.618,0,0,1,.505-.149,26.9,26.9,0,0,0,2.884.059c.773.053,1.569.049,2.355.04.212,0,.422-.027.527.218Z" transform="translate(-1244.445 -128.883)"/><path class="ad" d="M1366.261,123.515c-.205-.167-.434-.107-.669-.09-.441.032-.873-.1-1.32-.066-.966.075-1.933-.088-2.905.028-.447.053-.913-.122-1.377-.04a6.826,6.826,0,0,1,.5-1.253c.475,0,.95-.019,1.424-.016.63,0,1.27.012,1.9-.034a6.954,6.954,0,0,1,2.412.164c.178.05.323-.048.484-.078.2-.037.426-.108.463.214A11.576,11.576,0,0,0,1366.261,123.515Z" transform="translate(-1249.92 -115.956)"/><path class="w" d="M1328.269,270.5c-.337-.138-.674.14-1,.01-.366-.144-.736.063-1.136-.08-.255-.091-.654.094-1,.035a2.345,2.345,0,0,0-1.278.092.736.736,0,0,1-.479-.034c-.451-.172-.931.121-1.371-.106a8.2,8.2,0,0,1,.334-1.421c.11.363.339.381.662.328.362-.059.764-.245,1.14.006.1.064.221.2.236-.071.005-.1.1-.06.163-.042a2.861,2.861,0,0,0,1.239-.024,2.36,2.36,0,0,1,.853.136.963.963,0,0,0,.463.024c.5-.105,1.008-.183,1.513-.272Z" transform="translate(-1215.106 -250.654)"/><path class="ae" d="M1372.692,110.991c-.179-.313-.409-.1-.62-.056-.1.023-.178.184-.292.086-.485-.418-1.133,0-1.631-.332a22.168,22.168,0,0,1-2.278.123c-.5.1-.988-.274-1.456.072-.127.094-.245-.163-.409-.144a8.327,8.327,0,0,1,.668-1,2.484,2.484,0,0,0,1.266,0c.223-.081.555.063.854.04.159-.012.3.046.452-.08a.39.39,0,0,1,.353-.011c.333.187.629.281.95-.038.092-.091.213.1.35.131.359.08.743-.209,1.072.09.248-.34.538-.013.778.006a1.272,1.272,0,0,0,.959-.184.4.4,0,0,1,.572.3A4.237,4.237,0,0,0,1372.692,110.991Z" transform="translate(-1255.433 -104.602)"/><path class="x" d="M1696.48,289.692c.162-.081.323-.163.486-.241.059-.028.135-.092.189-.022.373.495.879.154,1.2.048a2.251,2.251,0,0,1,1.2-.008,8.7,8.7,0,0,0,1.428.023c.281.012.582.032.835.016.314-.019.622.061.93.017a5.4,5.4,0,0,1-.083,1c-.1.061-.047.17-.084.251h0a.269.269,0,0,1-.272.051,4.863,4.863,0,0,0-1.683-.026,5,5,0,0,1-1.528-.061,3.12,3.12,0,0,0-1.216.063,6.091,6.091,0,0,1-1.234-.094c-.126,0-.205-.147-.2-.282A2.325,2.325,0,0,1,1696.48,289.692Z" transform="translate(-1558.24 -269.344)"/><path class="t" d="M1695.167,291.775c0,.181-.009.363,0,.543.016.26,0,.552.426.358.121-.056.234.1.384.11a3.775,3.775,0,0,0,1.438-.2c.036-.013.092-.034.114-.018a2.409,2.409,0,0,0,1.746.21,6.586,6.586,0,0,1,1.992.08c.042.232-.08.443-.084.669-.055.042-.149.077-.158.127-.087.508-.569.3-.664.211-.209-.193-.323-.044-.484-.011a1.767,1.767,0,0,1-.768-.009c-.325-.074-.7-.191-1,.114-.055.056-.119.044-.19.015a2.765,2.765,0,0,0-2.162-.074c-.169.066-.59.166-.757-.205a11.638,11.638,0,0,0,.084-2.006q.042-.056.083,0Z" transform="translate(-1556.927 -271.427)"/><path class="c" d="M1542,246.11c-.214.068-.2-.137-.25-.231a5.953,5.953,0,0,1-.533-3.436,6.92,6.92,0,0,1,3.189-5.04,7.062,7.062,0,0,1,4.168-1.226,5.991,5.991,0,0,1,2.853.646,1.522,1.522,0,0,0,.274.089.577.577,0,0,1,.241.246c-.5-.15-.975-.388-1.492-.509a7.466,7.466,0,0,0-8.094,3.543A6.408,6.408,0,0,0,1542,246.11Z" transform="translate(-1415.955 -220.579)"/><path class="x" d="M1696.088,285.586h-.083V285C1696.165,285.177,1696.056,285.392,1696.088,285.586Z" transform="translate(-1557.848 -265.322)"/><path class="t" d="M1769.37,303.25c-.046-.108-.135-.231.084-.251C1769.45,303.091,1769.468,303.19,1769.37,303.25Z" transform="translate(-1625.027 -281.815)"/><path class="q" d="M344.527,182.6a2.773,2.773,0,0,0-1.871-2.417,8.4,8.4,0,0,0-2.934-.512c-.571.016-1.142.012-1.713,0a13.211,13.211,0,0,0-5.34,1.086c-.942.39-.936.393-1.5-.439-.384-.561-.766-1.124-1.176-1.666-.144-.191-.139-.266.076-.356a26.314,26.314,0,0,1,6.634-1.98,25.878,25.878,0,0,1,4.43-.31,14.592,14.592,0,0,1,5.774,1.226,5.738,5.738,0,0,1,3.476,4.781.583.583,0,0,1,.037.364c-.007.419-.092.477-.5.354-.094-.028-.2-.09-.28-.03-.371.282-.762.153-1.155.083a1.442,1.442,0,0,0-.621,0,.278.278,0,0,1-.2,0c-.709-.378-1.4-.049-2.1.051-.172.025-.321.1-.45-.06C344.947,182.6,344.686,182.76,344.527,182.6Z" transform="translate(-305.924 -165.43)"/><path class="r" d="M380.455,323.641c-.433,3.127-2.79,4.319-4.889,4.666a6.341,6.341,0,0,1-2.813-.074A2.349,2.349,0,0,1,372,327.9a1.737,1.737,0,0,1-.324-1.492,2.863,2.863,0,0,1,1.206-1.881,5.492,5.492,0,0,1,2.246-.954,18.011,18.011,0,0,1,5.023-.128C380.277,323.451,380.446,323.436,380.455,323.641Z" transform="translate(-344.181 -300.444)"/><path class="af" d="M335.4,297.27l-.251,1.087a1.062,1.062,0,0,1-.8.146,7.037,7.037,0,0,0-2.194,0c-.349.031-.677-.09-1.033-.073a11.333,11.333,0,0,1-2.071.025c-.577-.079-1.15.06-1.72-.03-.716-.113-1.437-.013-2.156-.058a7.4,7.4,0,0,0-1.728.069,19.256,19.256,0,0,0-1.923.167c-.583.1-1.174-.025-1.754.042a6.479,6.479,0,0,1-1.491.03c-.787-.092-1.57.037-2.358-.037-.394-.037-.815.054-1.228.006-.1-.012-.172.079-.244.146s-.179.156-.289.053a.261.261,0,0,1-.032-.311,1.853,1.853,0,0,0,.124-.263,15.677,15.677,0,0,1,1.756-1,3.345,3.345,0,0,0,1.748.082,6.108,6.108,0,0,1,1.036.027,1.667,1.667,0,0,0,.978-.088,1.322,1.322,0,0,1,.775-.055c.437.073.923-.212,1.315.172a.125.125,0,0,0,.122,0,3.064,3.064,0,0,1,1.226-.121,1.4,1.4,0,0,1,.689.085.417.417,0,0,0,.36.025.729.729,0,0,1,.569-.005.21.21,0,0,0,.163.017c.661-.319,1.345.052,2.013-.07.9-.165,1.814.046,2.726-.03a10.776,10.776,0,0,1,1.531.076,1,1,0,0,0,.374,0,1.756,1.756,0,0,1,1.046-.048,5.313,5.313,0,0,0,1.525.017A3.871,3.871,0,0,1,335.4,297.27Z" transform="translate(-291.447 -276.504)"/><path class="ad" d="M356.4,286.094a6.094,6.094,0,0,1-2.17.176c-.322-.04-.694.212-.954-.179,0,0-.083.047-.129.065a4.489,4.489,0,0,1-2.206.056,5.859,5.859,0,0,0-.816.032,21.111,21.111,0,0,0-2.622.058,1.929,1.929,0,0,1-.694-.081.644.644,0,0,0-.627.084c-.261.225-.514-.137-.8-.007-.211.1-.466-.04-.685-.05a4.588,4.588,0,0,0-1.457.011c-.171.047-.469.383-.589-.094,0-.011-.073-.006-.112-.007a4.937,4.937,0,0,0-1.645.031c-.618.22-1.158-.007-1.718.058a6.665,6.665,0,0,0-1.275.125.949.949,0,0,1-.895-.28,16.681,16.681,0,0,1,3.427-1.087.294.294,0,0,0,.349.16c.81-.132,1.629,0,2.447-.117a4.393,4.393,0,0,1,1.233.039,12.615,12.615,0,0,0,1.871.108c.718,0,1.443,0,2.161-.053.514-.041,1.026-.018,1.539-.051a2.188,2.188,0,0,0,.415-.025c.246-.064.487-.137.678.121a.211.211,0,0,0,.192.065c.441-.057.893-.006,1.325-.065a10.836,10.836,0,0,1,2.148-.064c.513.031,1.025-.054,1.539-.069.109,0,.219-.057.318.032A5.278,5.278,0,0,1,356.4,286.094Z" transform="translate(-312.444 -265.328)"/><path class="ac" d="M393.875,272.254a12.085,12.085,0,0,1-2.126.116,8.488,8.488,0,0,0-1.809.092c-.481.089-1.007.019-1.511.084-.013,0-.033.005-.04,0-.5-.516-1.078-.064-1.613-.138-.749-.1-1.5.137-2.249-.011a2.428,2.428,0,0,0-.567.047c-.705.029-1.4-.066-2.1-.067a4.96,4.96,0,0,0-2.123.083.17.17,0,0,1-.118.011,3.48,3.48,0,0,0-1.7,0c-.28.026-.325-.067-.252-.3a20.759,20.759,0,0,1,2.424-.335c.213-.11.457.032.669-.083h.835a8.661,8.661,0,0,1,1.84,0h.836c.241.113.511-.026.752.083h.334c.183.112.4-.025.585.083h.5c.125.1.293-.015.418.083.138,0,.277,0,.415,0a.763.763,0,0,0,.824-.657c.029-.116-.027-.256.1-.345a.776.776,0,0,0,.764.3,2.917,2.917,0,0,0,1.119-.106,1.036,1.036,0,0,1,.653-.028,4.552,4.552,0,0,0,1.559.042.587.587,0,0,1,.248.009,3.94,3.94,0,0,0,1.509.038A3.083,3.083,0,0,1,393.875,272.254Z" transform="translate(-349.673 -252.491)"/><path class="s" d="M295.625,310a.149.149,0,0,0,.016.038c.148.182-.248.344-.051.473.221.143.154-.226.333-.259.255-.048.484.083.738.061.125-.011.246.068.358-.065a.21.21,0,0,1,.184-.063c.548.247,1.11-.026,1.636.043s1.025.014,1.529.072c.394.045.772-.047,1.162-.034q.684.022,1.367.068a7.836,7.836,0,0,0-1.948.763c-.274.18-.535.373-.794.576a1.549,1.549,0,0,1-1.4.4,12.227,12.227,0,0,0-1.424-.111c-.547-.109-1.114.084-1.669-.035-.027-.006-.06.006-.082-.006-.245-.132-.128.6-.453.2-.229-.277-.446.028-.679-.044a.718.718,0,0,0-.684.012A5.637,5.637,0,0,1,295.625,310Z" transform="translate(-272.821 -288.231)"/><path class="s" d="M426,309.966c.03-.028.06-.081.089-.08a15.509,15.509,0,0,1,1.72-.053,1.228,1.228,0,0,0,.407.046,7.551,7.551,0,0,1,1.927-.017,8.122,8.122,0,0,1,1.334-.009,4.472,4.472,0,0,0,1.726-.036,2.093,2.093,0,0,1,.79,0,7.91,7.91,0,0,0,2.2-.019.435.435,0,0,1,.166,0,2.841,2.841,0,0,0,1.342.078c-.064.282-.138.561-.2.845a1.464,1.464,0,0,1-.795,1.047c-.012-.677-.5-.376-.719-.272a.909.909,0,0,1-.922-.124c-.322-.195-.3-.037-.3.274-.159-.232-.269-.313-.485-.162-.315.22-.714.074-1.052.057a2.241,2.241,0,0,1-.956-.151c-.109-.057-.23.039-.345.1a.38.38,0,0,1-.513-.364c.024-.681-.065-.816-.741-.948a12.5,12.5,0,0,0-2.64-.217C427.362,309.976,426.681,309.966,426,309.966Z" transform="translate(-394.001 -288.029)"/><path class="ag" d="M509.852,250.168a1.743,1.743,0,0,1-1.21.115,1.517,1.517,0,0,0-.789-.022,3.767,3.767,0,0,1-1.129-.021,7.071,7.071,0,0,0-1.034.032c-.375-.012-.767.251-1.132,0-.057-.04-.1-.092-.183-.051-.35.183-.345-.081-.375-.3a5.54,5.54,0,0,0,.084-1.338c.25.03.566-.175.72.206.008.02.109.029.147.007a3.128,3.128,0,0,1,1.62-.243c.16,0,.387-.25.442-.109.171.441.483.13.715.191.2.051.421.013.61.08a.606.606,0,0,0,.736-.135c.127-.139.253-.045.379.011.4.178.466.139.482-.3,0-.1,0-.195,0-.292a3.479,3.479,0,0,1,.04,1.543C509.951,249.742,510.023,249.986,509.852,250.168Z" transform="translate(-465.481 -231.408)"/><path class="e" d="M364.378,320.064a2.432,2.432,0,0,1,.175-3.381,5.426,5.426,0,0,1,3.192-1.384,19.008,19.008,0,0,1,5.407.079c.358.049.276.22.18.427a.831.831,0,0,1-.644.063,16.386,16.386,0,0,0-5.068.147,4.852,4.852,0,0,0-2.443,1.192,2.516,2.516,0,0,0-.718,2.407C364.484,319.764,364.655,319.96,364.378,320.064Z" transform="translate(-336.978 -292.94)"/><path class="f" d="M369.848,325.317c.136-.28-.069-.522-.092-.787a2.835,2.835,0,0,1,1.769-2.849,7.28,7.28,0,0,1,2.59-.71,15.76,15.76,0,0,1,2.66-.079c.676.024,1.351.108,2.026.166-.014.114.025.242-.081.334a2.045,2.045,0,0,0-.965-.16,20.9,20.9,0,0,0-4.069.147,5.693,5.693,0,0,0-2.586,1.07,2.572,2.572,0,0,0-.836,3.2A.83.83,0,0,1,369.848,325.317Z" transform="translate(-342.448 -298.194)"/><path class="ad" d="M426.834,278.865h-1.84A4.155,4.155,0,0,1,426.834,278.865Z" transform="translate(-393.079 -259.604)"/><path class="ad" d="M457.754,280c-.25-.037-.517.084-.752-.083C457.251,279.951,457.518,279.832,457.754,280Z" transform="translate(-422.411 -260.653)"/><path class="ad" d="M407.665,279.914c-.206.166-.447.047-.669.083C407.2,279.83,407.443,279.949,407.665,279.914Z" transform="translate(-376.586 -260.652)"/><path class="ad" d="M470.587,281.011c-.194-.032-.409.077-.585-.083C470.2,280.959,470.41,280.851,470.587,281.011Z" transform="translate(-434.324 -261.583)"/><path class="ad" d="M483.419,282.052c-.141-.02-.3.056-.418-.083C483.142,281.989,483.3,281.914,483.419,282.052Z" transform="translate(-446.238 -262.54)"/><path class="s" d="M59,95.824c.164-.641.329-1.282.49-1.925.038-.153.12-.282.283-.237a3.663,3.663,0,0,0,1.307-.072.754.754,0,0,1,.36.079,2.692,2.692,0,0,0,1.569.008,8.367,8.367,0,0,0,1.316-.1c.182-.052.3.187.5.16a16.58,16.58,0,0,0,1.889-.126.179.179,0,0,1,.15.026c.31.38.666.166,1.03.116a4.105,4.105,0,0,1,1.543-.067,3.9,3.9,0,0,0,1.547-.153.568.568,0,0,1,.463.091c.364.314.716.2,1.118.058a2.686,2.686,0,0,1,1.445-.136,2.956,2.956,0,0,0,1.08-.034.756.756,0,0,1,.564.049.387.387,0,0,0,.431.059c.488-.3.33.095.346.367a4.145,4.145,0,0,1,2.268-.32c.367.019.729-.054,1.081-.025a4.371,4.371,0,0,0,1.188-.117,5.117,5.117,0,0,1,1.635.16.589.589,0,0,0,.468-.054.551.551,0,0,1,.693,0,.477.477,0,0,0,.6-.078c.207-.158.317-.183.319.12,0,.088.032.162.1.131.469-.206,1,.08,1.46-.177a.209.209,0,0,1,.2.029c.268.293.639.01.944.179.106.059.273-.147.5-.124a8.717,8.717,0,0,0,1.555-.035c.193-.016.372.182.578.011.052-.043.085.086.105.172a1.6,1.6,0,0,1-.11.683,5.51,5.51,0,0,1-.258,1.034,3.016,3.016,0,0,1-1.316,0,1.544,1.544,0,0,0-.5-.06,33.266,33.266,0,0,1-3.527.006c-.945-.045-1.883.027-2.821.034a25.529,25.529,0,0,0-3.822.05,7.59,7.59,0,0,1-1.406-.019,14.006,14.006,0,0,0-3.026.042c-.368.066-.729-.136-1.113-.119-.9.04-1.8.061-2.695.038a10.593,10.593,0,0,1-1.5-.076.664.664,0,0,0-.405.073.536.536,0,0,1-.55,0c-.275-.153-.584.013-.842.064a5.836,5.836,0,0,1-1.649.015c-.468-.041-.912.07-1.369.054a6.393,6.393,0,0,1-1.119-.089,2.008,2.008,0,0,0-1.074.007.388.388,0,0,1-.245.036A2.265,2.265,0,0,0,59,95.824Z" transform="translate(-57.679 -89.77)"/><path class="ah" d="M180.386,170.535c-.37,1.6-.737,3.2-1.112,4.8-.122.52-.262,1.035-.393,1.553a2.28,2.28,0,0,1-.981-.046c-.205-.014-.369-.059-.514.134-.063.084-.218.165-.277.029-.12-.275-.343-.194-.534-.2a6.8,6.8,0,0,0-1.4.047,5.879,5.879,0,0,1-1.268.092,6.918,6.918,0,0,1-1.454-.112c-.243-.054-.126-.285-.092-.452.153-.954.435-1.878.653-2.816.274-1.181.568-2.358.853-3.536.036-.043,0,.014.023-.034.2-.4.52,0,.72-.1.224-.112.318-.348.657-.115.319.219.767.106,1.158.081.233-.015.461-.121.681.046a.144.144,0,0,0,.16.008c.529-.38,1.1-.008,1.656-.1.282-.047.572.016.837-.17a.612.612,0,0,1,.6.037c.178.079.143.284.094.447C180.408,170.264,180.468,170.41,180.386,170.535Z" transform="translate(-161.51 -159.548)"/><path class="ai" d="M59,116.1a1.515,1.515,0,0,1,1.642-.312.246.246,0,0,0,.158.029,3.573,3.573,0,0,1,1.843.007,6.479,6.479,0,0,0,1.274-.042,3.247,3.247,0,0,1,1.3.076.955.955,0,0,0,.592-.035c.36-.146.779.069,1.093-.222a.106.106,0,0,1,.177.016c.162.318.365.19.572.065s.431-.006.644-.011c.711-.017,1.433-.016,2.129.023a8.105,8.105,0,0,1,2.713.118.4.4,0,0,0,.28-.022,1.568,1.568,0,0,1,.643-.13,19.612,19.612,0,0,0,2.094.042,19.787,19.787,0,0,0,2.6-.025,4.467,4.467,0,0,1,2.039.1c.125.053.2-.05.311-.05q1.106,0,2.212-.052c.906-.04,1.814.084,2.712.03a6.767,6.767,0,0,0,1.839-.075c.144-.049.275.047.38.079.5.154,1.019.01,1.515.136-.089.186-.031.413-.167.586-.119-.033-.225-.122-.358-.094a16.621,16.621,0,0,1-3.226,0c-.619.011-1.23.1-1.846.129-.291.014-.567-.105-.863-.11-.984-.018-1.966-.047-2.953-.014a23.5,23.5,0,0,1-2.447-.076c-.578-.041-1.161.107-1.744.044-1.076-.116-2.142.155-3.232.015a5.452,5.452,0,0,0-2.023-.005.487.487,0,0,1-.128,0,4.007,4.007,0,0,0-1.445.023.5.5,0,0,1-.248,0,9.522,9.522,0,0,0-2.122-.036c-.982,0-1.956.127-2.944.076-.749-.038-1.509-.06-2.269-.023a7.834,7.834,0,0,1-2.01-.088c-.254-.054-.5.082-.738-.017Z" transform="translate(-57.674 -110.043)"/><path class="s" d="M161.454,305l-.512,2.157a.187.187,0,0,1-.012.039,2.092,2.092,0,0,1-1.214.377,1.726,1.726,0,0,0-1.353-.039c-.076.025-.182.071-.234.04a3.005,3.005,0,0,0-1.633-.25c-.364,0-.7.157-1.067-.07-.112-.068-.389.143-.595.216s-.339.05-.306-.213c.005-.041.034-.109.022-.117-.593-.391.018-.8-.015-1.207a1.934,1.934,0,0,1,.149-.6,1.408,1.408,0,0,1,1.086-.087.129.129,0,0,0,.081.015c.837-.242,1.7.142,2.549-.122.336-.1.722.076,1.1.028C160.15,305.086,160.811,305.144,161.454,305Z" transform="translate(-145.003 -283.648)"/><path class="u" d="M167.5,251c.007.211-.069.374.326.373a9.934,9.934,0,0,1,1.459.071,3.605,3.605,0,0,0,.891-.088c.645-.045,1.3,0,1.945-.067.235-.024.171.188.172.322a.209.209,0,0,0,.229-.172c.027-.1.127-.218.2-.169.363.248.84-.041,1.184.267.016.014.076-.021.116-.033a11.469,11.469,0,0,1-.335,1.5,1.531,1.531,0,0,1-.991.241,15.8,15.8,0,0,0-1.895,0,7.461,7.461,0,0,1-2.344,0c-.5-.112-.992.048-1.456-.151A15.179,15.179,0,0,1,167.5,251Z" transform="translate(-156.65 -234.158)"/><path class="u" d="M197.53,152.552c.042-.186-.078-.375.024-.568.026-.05-.032-.266-.1-.226-.191.107-.367-.186-.532.01a.346.346,0,0,1-.346.155c-.543-.055-1.1.145-1.636-.112-.012-.006-.035-.009-.04,0-.364.405-.83.055-1.223.168a4.289,4.289,0,0,1-1.151.021c-.255.005-.51-.413-.71.113-.018.046-.147-.038-.211-.091a.4.4,0,0,0-.591.029l.419-1.838c.487-.117,1.015,0,1.467-.135.378-.11.63.2,1,.067a1.644,1.644,0,0,1,1.019-.047,6.01,6.01,0,0,0,1.486,0c.272.017.552-.086.81.087a.228.228,0,0,0,.334-.048c.247-.313.369-.184.445.123.01.04.028.078.04.119A12.759,12.759,0,0,1,197.53,152.552Z" transform="translate(-178.654 -141.565)"/><path class="x" d="M165.772,289.8a.987.987,0,0,1-.874.2c-.329-.11-.62.115-.963.074a7.1,7.1,0,0,1-1.136-.065c-.2-.054-.407.134-.656.148-.626.035-1.26-.243-1.877.042-.409-.268-.846-.005-1.266-.068a13.33,13.33,0,0,1,.418-1.672,5.673,5.673,0,0,1,1.563.023c.5.041.99-.033,1.487-.012a10.086,10.086,0,0,1,2.192.071,4.588,4.588,0,0,0,.909-.05c.189.009.362.017.452.217Z" transform="translate(-149.32 -268.449)"/><path class="ab" d="M200.627,122.293c.3-.295.654-.079.979-.09a6.218,6.218,0,0,1,1.684.058c.806.2,1.571-.146,2.381-.023a14.229,14.229,0,0,0,1.745-.033c.741.014,1.49.007,2.236.052.773.047,1.557-.026,2.338-.01.6.012,1.186.074,1.776.122a2.569,2.569,0,0,0,1.1-.038,3.666,3.666,0,0,1,1.194-.07c.442-.032.9.125,1.335.058.38-.059.715.155,1.089.049.155-.043.316-.086.474-.128.207-.056.362-.031.393.221.055.39-.219.334-.452.334H207.649a4.526,4.526,0,0,0-1.9-.1,14.268,14.268,0,0,1-1.993,0c-.636-.026-1.276.054-1.916.04-.306-.007-.611-.034-.917-.043C200.672,122.69,200.522,122.575,200.627,122.293Z" transform="translate(-187.436 -116.071)"/><path class="w" d="M202.624,137.878c-.238-.016-.187-.216-.227-.46-.212.52-.468.57-.835.252-.088-.076-.313,0-.473.017-.22.024-.448.206-.652-.044-.014-.017-.089-.007-.116.014a.694.694,0,0,1-.711.074,1.581,1.581,0,0,0-1.335.13.224.224,0,0,1-.162,0,2.827,2.827,0,0,0-1.647-.078,1.553,1.553,0,0,1-.444-.073,7.882,7.882,0,0,0,.25-1.171.305.305,0,0,1,.3-.191c1.253.125,2.5-.077,3.76-.024a13.692,13.692,0,0,0,2.361.023c.114-.015.341-.095.268.192A5.431,5.431,0,0,1,202.624,137.878Z" transform="translate(-183.246 -129.065)"/><path class="ac" d="M170.6,275.521c-.142-.161-.328-.084-.5-.094a7.688,7.688,0,0,1-1.4-.047,5.205,5.205,0,0,0-1.508-.007,13.41,13.41,0,0,1-2.011,0,5.579,5.579,0,0,1-1.183-.1,4.139,4.139,0,0,1,.251-1.087c.335-.106.71.055,1.032-.156.034-.022.141,0,.153.022.2.447.555.231.854.2s.549.095.862.053a9.236,9.236,0,0,1,2.39-.022.315.315,0,0,0,.152-.019c.14-.046.324-.309.409.057.065-.015.131-.03.2-.046l.639-.169Z" transform="translate(-153.898 -255.257)"/><path class="aa" d="M200.8,125.254c-.011-.118-.078-.1-.173-.1a5.6,5.6,0,0,1-1.713-.045c-.213-.066-.482.076-.735.063-.517-.027-1.035-.03-1.552-.072a2.413,2.413,0,0,0-.823.085c-.367.109-.748-.1-1.123.1-.09.047-.352-.223-.567-.033a.6.6,0,0,0-.418-.753.089.089,0,0,1-.028-.067c0-.025,0-.037.009-.037.147-.167.4-.194.52-.4h.084c.033.246.133.285.409.3a10.842,10.842,0,0,0,1.731.019c.855-.1,1.7.168,2.539.006.593-.115,1.18,0,1.767-.068a.54.54,0,0,1,.575.247C200.881,124.584,200.924,124.975,200.8,125.254Z" transform="translate(-181.088 -117.778)"/><path class="ab" d="M69.861,122.107c.049.4-.323.293-.5.418-.154.105-.348-.026-.5.083h-.168a.248.248,0,0,0-.156-.043c-1.735,0-3.469,0-5.2,0a.249.249,0,0,0-.156.043H63.09a.85.85,0,0,0-.448-.041c-1.427,0-2.853,0-4.28-.008-.122,0-.312.115-.371-.118.012-.115-.039-.246.083-.334a1.6,1.6,0,0,1,1.243-.051c.5.1.979-.081,1.469.059.2.058.471-.055.722-.042.146.008.3.033.444.033a10.2,10.2,0,0,1,1.395.013c.734.1,1.447-.121,2.167-.072.408.028.85-.178,1.155-.092.485.136.943-.122,1.43.1.366.169.847-.122,1.287-.036C69.544,122.053,69.723,121.962,69.861,122.107Z" transform="translate(-56.753 -115.885)"/><path class="ai" d="M120,128.756c.189-.174.432-.1.638-.1,1.551-.012,3.1.006,4.655.014a.253.253,0,0,1,.224.083Z" transform="translate(-113.581 -122.033)"/><path class="ai" d="M57.961,128c.122.137.285.081.431.081,1.412,0,2.825,0,4.238,0,.145,0,.308-.055.431.081-1.6,0-3.193,0-4.789-.007C58.168,128.156,57.926,128.309,57.961,128Z" transform="translate(-56.723 -121.441)"/><path class="ai" d="M188,129.028c.147-.151.334-.056.5-.083,0,.028,0,.055,0,.083Z" transform="translate(-175.897 -122.305)"/><path class="q" d="M1822.532,185.932c.229-1.012.455-2.025.69-3.036.151-.647.328-1.289.468-1.938a.317.317,0,0,1,.37-.293c1.811,0,3.622.006,5.432,0,.277,0,.354.125.3.356a13.811,13.811,0,0,0-.195,1.73.6.6,0,0,0,.291.636.685.685,0,0,0,.818.008,17.6,17.6,0,0,1,2.171-1.606,10.684,10.684,0,0,1,4.328-1.476,10.442,10.442,0,0,1,2.927.183c.25.044.256.13.168.331q-.863,1.964-1.708,3.936c-.084.2-.184.125-.326.112a13.569,13.569,0,0,0-5.445.291,8.555,8.555,0,0,0-2.185,1.189,1.619,1.619,0,0,1-1.264.266,18.112,18.112,0,0,1-1.867-.064,5.82,5.82,0,0,0-1.4-.158c-.51.03-1.019-.026-1.525.016-.259.021-.49.2-.771.16a2.416,2.416,0,0,1-1.176-.247A.275.275,0,0,1,1822.532,185.932Z" transform="translate(-1673.759 -169.346)"/><path class="s" d="M1810.535,306.31a3.852,3.852,0,0,0-.293,1.155c.034.551-.479.609-.669.94a.626.626,0,0,1-.175-.064,2.271,2.271,0,0,0-1.626.028c-.247.063-.467.168-.674-.08a.317.317,0,0,0-.318-.051,5.521,5.521,0,0,1-1.392.025c-.42-.008-.839.024-1.259.018-.305,0-.323-.3-.27-.506a8.715,8.715,0,0,1,.408-1.548,6.271,6.271,0,0,0,1.489.033c.715,0,1.428.087,2.143.044a.511.511,0,0,0,.315-.087c.127-.1.215-.058.361.01a1.986,1.986,0,0,0,1.083,0C1809.958,306.2,1810.26,306.083,1810.535,306.31Z" transform="translate(-1656.664 -284.708)"/><path class="u" d="M1818.418,248a.513.513,0,0,0,.739.4c.089-.046.182-.112.236.029.085.219.135.284.317.042.166-.221.17.185.352.129a.248.248,0,0,1,.33-.225c.37.065.751-.1,1.12.068.166.076.239-.149.463-.131a8.525,8.525,0,0,0,2.682.2.991.991,0,0,1,.524.083.288.288,0,0,0,.229.014c.359-.145.764-.011,1.118-.185a17.016,17.016,0,0,1-1.505,1.506,11.592,11.592,0,0,0-2.072,0,1.314,1.314,0,0,1-.733-.065c-.049-.027-.12-.053-.16-.022-.6.465-1.239-.022-1.858.089a12.613,12.613,0,0,1-1.619,0,.7.7,0,0,1-.581-.174A10.547,10.547,0,0,1,1818.418,248Z" transform="translate(-1669.646 -231.41)"/><path class="ab" d="M1815.269,291.5a5.619,5.619,0,0,0-1.809.179c-.284.072-.188-.2-.289-.294a1.306,1.306,0,0,1-1.223.189,2.321,2.321,0,0,0-.786-.019c-.63.042-1.259-.062-1.885.024-.125.017-.261.021-.278-.162a5.1,5.1,0,0,1,.334-1.421c.1.047.19.162.3.127.5-.156,1.016.035,1.515-.086a1.033,1.033,0,0,1,.412,0,10.563,10.563,0,0,0,2.065.029,6.622,6.622,0,0,1,1.346.06c.24.039.489-.188.715.035C1815.629,290.634,1815.285,291.015,1815.269,291.5Z" transform="translate(-1661.398 -269.898)"/><path class="y" d="M1819.336,278.253c-.172.025-.363-.064-.513.1-.084.09-.168.069-.246-.022-.109-.128-.22-.125-.361-.027-.229.158-.432-.085-.672-.064a8.6,8.6,0,0,1-2.534-.038c-.141-.029-.321.129-.463.1a3.615,3.615,0,0,0-1.322.035c-.182.03-.251-.077-.24-.248a3.139,3.139,0,0,1,.251-1.086c.522.425,1.132.143,1.7.206.159.018.328-.052.48.055.055.038.132.1.179.018.188-.307.433-.174.688-.125a2.174,2.174,0,0,0,.745-.018c.068-.011.138-.056.2-.039.655.168,1.315-.091,1.97.028a1.117,1.117,0,0,0,.372-.014c.143-.022.281-.024.351.139Z" transform="translate(-1665.048 -257.988)"/><path class="aj" d="M1822.66,269.91a5.28,5.28,0,0,0-1.721.016,1.13,1.13,0,0,1-.588-.041c-.472-.068-.939.135-1.4.034-.268-.059-.486-.147-.607.189a.072.072,0,0,1-.066.024c-.659-.357-1.351-.1-2.028-.1-.281,0-.042-.356-.278-.368a1.413,1.413,0,0,1,.167-.669,18.76,18.76,0,0,0,2.774.074.73.73,0,0,1,.389.073c.091.051.257.107.311.063.486-.393,1.036-.1,1.548-.149a8.185,8.185,0,0,1,1.773-.018c.106.014.189.015.227.127C1823.076,269.464,1822.787,269.632,1822.66,269.91Z" transform="translate(-1667.787 -250.649)"/><path class="q" d="M1163.819,190.473c.171-1.025.459-2.024.692-3.035.171-.742.374-1.477.54-2.22.047-.211.138-.265.337-.264q2.861.008,5.723,0c.256,0,.3.072.24.314-.27,1.1-.521,2.21-.783,3.315-.156.659-.32,1.317-.481,1.976a.282.282,0,0,1-.406.22.716.716,0,0,0-.558.049,1,1,0,0,1-.73.04,2.412,2.412,0,0,0-1.148-.087.991.991,0,0,1-.37-.03.66.66,0,0,0-.6.062.162.162,0,0,1-.113.048c-.51-.09-1.024.212-1.53-.014a.681.681,0,0,0-.446,0C1163.817,190.929,1163.77,190.875,1163.819,190.473Z" transform="translate(-1070.132 -173.636)"/><path class="t" d="M1153.893,301.416a10.985,10.985,0,0,1-.337,1.451c-.168.65-.314.643-.926.4-.217-.087-.35-.2-.581,0a.546.546,0,0,1-.6-.023.663.663,0,0,0-.944.014.313.313,0,0,1-.312.076c-.361-.115-.729.031-1.1-.06a1.228,1.228,0,0,0-.844.1.656.656,0,0,1-.925-.662,5.915,5.915,0,0,1,.388-1.717.942.942,0,0,0,.7.194,3.954,3.954,0,0,1,1.24.059c.546.1,1.058-.184,1.6-.116.809.1,1.627.087,2.438.16A.238.238,0,0,1,1153.893,301.416Z" transform="translate(-1055.023 -279.981)"/><path class="ag" d="M1159.042,250.994c-.017.266.063.439.353.275.334-.189.609.163.913.071.409-.123.876.112,1.25-.21a.231.231,0,0,1,.237-.015,3.989,3.989,0,0,0,1.307.046c.328-.007.6.232.94.163a.691.691,0,0,0,.344-.1.354.354,0,0,1,.457-.044.312.312,0,0,0,.467-.1,20.492,20.492,0,0,1-.5,2.006c-.165.186-.41.125-.578.1a17.117,17.117,0,0,0-2.883-.043,2.648,2.648,0,0,0-1.333.1.2.2,0,0,1-.164,0,1.69,1.69,0,0,0-.908-.079c-.265.026-.428-.1-.32-.408A7.211,7.211,0,0,1,1159.042,250.994Z" transform="translate(-1065.355 -234.157)"/><path class="aa" d="M1158.166,288.923c-.637-.035-1.274-.085-1.911-.1a6.55,6.55,0,0,1-.67-.093c-.516-.061-.985.234-1.49.135-.621-.122-1.254-.038-1.878-.108-.178-.02-.25-.087-.238-.257a4.221,4.221,0,0,1,.251-1.086,2.011,2.011,0,0,0,.946-.032,14.037,14.037,0,0,1,1.862.029,25.708,25.708,0,0,1,2.761.052c.24.04.483-.208.7.034Z" transform="translate(-1059.296 -267.488)"/><path class="ac" d="M1161.27,273.414a2.679,2.679,0,0,1-1.348.043c-.654-.126-1.28.079-1.936-.012a6.857,6.857,0,0,0-1.756-.005c-.29.036-.584-.1-.853.157-.054.051-.2-.233-.376-.267a6.026,6.026,0,0,1,.334-1.338c.085.365.365.453.725.209.094-.064.091-.129.183.024a.413.413,0,0,0,.531.152,1.488,1.488,0,0,1,1.2-.09c.273.052.582-.086.858-.039.379.064.762-.154,1.129.042.012.006.031.017.038.013.513-.323,1.013.192,1.522.024A5.336,5.336,0,0,1,1161.27,273.414Z" transform="translate(-1062.066 -253.401)"/><path class="t" d="M1191.005,100.346c.2-.471.148-1.014.441-1.457.041-.062.024-.2.135-.165.424.13.87-.182,1.285.076.09.056.154-.018.217-.072.042-.036.114-.106.127-.1.377.266.709-.149,1.081-.068.193.042.4.1.582.144.516.12,1.077-.287,1.548.149a.1.1,0,0,0,.148-.025c.25-.306.534-.155.828-.085a1.022,1.022,0,0,0,.891-.178,13.625,13.625,0,0,1-.428,1.946,1.23,1.23,0,0,0-1.077-.152.528.528,0,0,1-.33.015,4.758,4.758,0,0,0-1.725-.1,15.46,15.46,0,0,0-2.357.134A2.528,2.528,0,0,1,1191.005,100.346Z" transform="translate(-1095.06 -94.459)"/><path class="ai" d="M1189.706,117.665c.594-.124,1.2.019,1.808-.116a8.574,8.574,0,0,1,1.89-.086,7,7,0,0,1,1.8.113c.342.093.71-.18,1.086-.005.135.063.256.092.265.262,0,.375-.154.516-.556.511-1.982-.021-3.964-.01-5.945-.01-.533,0-.533,0-.392-.508C1189.682,117.773,1189.693,117.719,1189.706,117.665Z" transform="translate(-1093.762 -111.778)"/><path class="q" d="M1069.84,253.922c-.087.127-.156.19-.267.147-.017-.007-.039-.049-.033-.062C1069.605,253.872,1069.733,253.955,1069.84,253.922Z" transform="translate(-983.748 -236.84)"/><path class="ah" d="M219.383,170.577c-.008-.06.008-.1.055-.094.027.005.053.051.065.084.006.017-.021.046-.033.069Z" transform="translate(-204.653 -160.374)"/><path class="q" d="M1846.678,254.159c-.022.07-.061.125-.141.119a.125.125,0,0,1-.126-.13c0-.073.063-.081.117-.084C1846.6,254.06,1846.664,254.07,1846.678,254.159Z" transform="translate(-1695.682 -236.97)"/></g></svg>