<svg xmlns="http://www.w3.org/2000/svg" width="30" height="25.714" viewBox="0 0 30 25.714"><defs><style>.a{fill:#fff;}</style></defs><path class="a" d="M9.666,17.143h15.94a.876.876,0,0,0,.845-.622l3.516-12a.84.84,0,0,0-.143-.752.887.887,0,0,0-.7-.341H7.639L7.01.671A.874.874,0,0,0,6.152,0H.879A.868.868,0,0,0,0,.857a.868.868,0,0,0,.879.857H5.447L8.621,15.641A2.574,2.574,0,0,0,7.031,18a2.608,2.608,0,0,0,2.637,2.571H25.606a.857.857,0,1,0,0-1.714H9.668a.857.857,0,1,1,0-1.714Zm18.29-12L24.942,15.429H10.373L8.029,5.143Zm0,0"/><path class="a" d="M150,362.571A2.638,2.638,0,1,0,152.637,360,2.608,2.608,0,0,0,150,362.571Zm2.637-.857a.857.857,0,1,1-.879.857A.869.869,0,0,1,152.637,361.714Zm0,0" transform="translate(-141.211 -339.428)"/><path class="a" d="M362,362.571A2.638,2.638,0,1,0,364.637,360,2.608,2.608,0,0,0,362,362.571Zm2.637-.857a.857.857,0,1,1-.879.857A.869.869,0,0,1,364.637,361.714Zm0,0" transform="translate(-340.789 -339.428)"/></svg>